<?xml version="1.0" encoding="UTF-8"?>
<svg width="32px" height="32px" viewBox="0 0 32 32" version="1.1" xmlns="http://www.w3.org/2000/svg" xmlns:xlink="http://www.w3.org/1999/xlink">
    <!-- Generator: Sketch 51.2 (57519) - http://www.bohemiancoding.com/sketch -->
    <title>icon-info</title>
    <desc>Created with Sketch.</desc>
    <defs></defs>
    <g id="icon-info" stroke="none" stroke-width="1" fill="none" fill-rule="evenodd">
        <path d="M15.5060001,24.06 C14.6739959,24.06 14.2580001,23.5746715 14.2580001,22.604 C14.2580001,22.3439987 14.301333,21.9800023 14.3880001,21.512 L15.4540001,16.104 C15.5060003,15.8613321 15.5320001,15.6620008 15.5320001,15.506 C15.5320001,15.2806655 15.4886672,15.1116672 15.4020001,14.999 C15.315333,14.8863328 15.2026674,14.83 15.0640001,14.83 C14.6999982,14.83 14.2060032,15.1766632 13.5820001,15.87 C13.5646666,15.8873334 13.5386669,15.896 13.5040001,15.896 C13.4346664,15.896 13.3826669,15.865667 13.3480001,15.805 C13.3133332,15.744333 13.3133332,15.6880003 13.3480001,15.636 C13.9720032,14.9079964 14.5353309,14.379335 15.0380001,14.05 C15.5406692,13.720665 16.0346643,13.556 16.5200001,13.556 C17.3520042,13.556 17.7680001,14.0066622 17.7680001,14.908 C17.7680001,15.2026681 17.7333337,15.4973319 17.6640001,15.792 L16.5720001,21.512 C16.5373332,21.6680008 16.5200001,21.8673321 16.5200001,22.11 C16.5200001,22.5260021 16.6499988,22.734 16.9100001,22.734 C17.0833343,22.734 17.2783323,22.6560008 17.4950001,22.5 C17.7116678,22.3439992 17.9759985,22.1186681 18.2880001,21.824 C18.3226669,21.7893332 18.3573332,21.772 18.3920001,21.772 C18.4440003,21.772 18.4873332,21.802333 18.5220001,21.863 C18.5566669,21.923667 18.5480003,21.9799997 18.4960001,22.032 C17.9066638,22.7253368 17.3823357,23.236665 16.9230001,23.566 C16.4636644,23.895335 15.9913358,24.06 15.5060001,24.06 Z M17.2480001,10.852 C16.7973311,10.852 16.4376681,10.717668 16.1690001,10.449 C15.9003321,10.180332 15.7660001,9.81200234 15.7660001,9.344 C15.7660001,8.92799792 15.9003321,8.5900013 16.1690001,8.33 C16.4376681,8.0699987 16.7973311,7.94 17.2480001,7.94 C17.698669,7.94 18.0496655,8.0699987 18.3010001,8.33 C18.5523347,8.5900013 18.6780001,8.92799792 18.6780001,9.344 C18.6780001,9.82933576 18.5523347,10.2019987 18.3010001,10.462 C18.0496655,10.7220013 17.698669,10.852 17.2480001,10.852 Z" id="icon-info-copy" fill="#FFFFFF"></path>
    </g>
</svg>